<svg width="39" height="26" viewBox="0 0 39 26" fill="none" xmlns="http://www.w3.org/2000/svg">
<g clip-path="url(#clip0_14_486)">
<mask id="mask0_14_486" style="mask-type:luminance" maskUnits="userSpaceOnUse" x="0" y="0" width="39" height="25">
<path d="M36.8008 0.894043H2.80078C1.69621 0.894043 0.800781 1.78947 0.800781 2.89404V22.894C0.800781 23.9986 1.69621 24.894 2.80078 24.894H36.8008C37.9053 24.894 38.8008 23.9986 38.8008 22.894V2.89404C38.8008 1.78947 37.9053 0.894043 36.8008 0.894043Z" fill="white"/>
</mask>
<g mask="url(#mask0_14_486)">
<path d="M36.8008 0.894043H2.80078C1.69621 0.894043 0.800781 1.78947 0.800781 2.89404V22.894C0.800781 23.9986 1.69621 24.894 2.80078 24.894H36.8008C37.9053 24.894 38.8008 23.9986 38.8008 22.894V2.89404C38.8008 1.78947 37.9053 0.894043 36.8008 0.894043Z" fill="white"/>
<path d="M34.6978 6.79404L35.4658 4.70704L38.8008 4.69104V0.894043L0.800781 0.910043V24.894L38.8008 24.878V21.088L35.6658 21.104L34.4418 19.674L33.1718 21.104H23.7698V13.485H20.6678L24.5448 4.70704H28.3188L29.2298 6.69704V4.70704H33.9148L34.6978 6.79404ZM32.0518 8.17704L32.0438 7.33704L32.3638 8.17704L33.9228 12.342H35.4728L37.0408 8.17704L37.3448 7.34504V12.342L38.8008 12.326V5.93004L36.2648 5.94604L35.0348 9.19204L34.7058 10.072L34.3708 9.19204L33.1308 5.94604H30.4208V12.342H32.0518V8.17704ZM28.5418 12.342H30.4208L27.6068 5.94604H25.4248L22.5948 12.342H24.4488L24.9448 11.111H28.0468L28.5418 12.342ZM26.1758 8.11204L26.4958 7.31304L26.8158 8.11304L27.4788 9.72804H25.5128L26.1758 8.11204ZM25.0808 13.493V19.865H30.4208V18.482H26.7108V17.37H30.3488V15.995H26.7118V14.875H30.4218V13.492H25.0808V13.493ZM36.3608 19.865H38.4798L35.4898 16.667L38.4798 13.493H36.3928L34.4658 15.563L32.5478 13.493H30.4208L33.4028 16.691L30.4208 19.865H32.4838L34.4268 17.786L36.3608 19.865ZM37.1688 16.659L38.8008 18.482V14.828L37.1688 16.659Z" fill="#006FCF"/>
</g>
<path d="M36.8008 1.39404H2.80078C1.97235 1.39404 1.30078 2.06562 1.30078 2.89404V22.894C1.30078 23.7225 1.97235 24.394 2.80078 24.394H36.8008C37.6292 24.394 38.3008 23.7225 38.3008 22.894V2.89404C38.3008 2.06562 37.6292 1.39404 36.8008 1.39404Z" stroke="black" stroke-opacity="0.07"/>
</g>
<defs>
<clipPath id="clip0_14_486">
<rect width="39" height="25" fill="white" transform="translate(0 0.669922)"/>
</clipPath>
</defs>
</svg>
