<svg width="39" height="26" viewBox="0 0 39 26" fill="none" xmlns="http://www.w3.org/2000/svg">
<g clip-path="url(#clip0_14_473)">
<mask id="mask0_14_473" style="mask-type:luminance" maskUnits="userSpaceOnUse" x="0" y="0" width="39" height="25">
<path d="M36.8008 0.894043H2.80078C1.69621 0.894043 0.800781 1.78947 0.800781 2.89404V22.894C0.800781 23.9986 1.69621 24.894 2.80078 24.894H36.8008C37.9053 24.894 38.8008 23.9986 38.8008 22.894V2.89404C38.8008 1.78947 37.9053 0.894043 36.8008 0.894043Z" fill="white"/>
</mask>
<g mask="url(#mask0_14_473)">
<path d="M36.8008 0.894043H2.80078C1.69621 0.894043 0.800781 1.78947 0.800781 2.89404V22.894C0.800781 23.9986 1.69621 24.894 2.80078 24.894H36.8008C37.9053 24.894 38.8008 23.9986 38.8008 22.894V2.89404C38.8008 1.78947 37.9053 0.894043 36.8008 0.894043Z" fill="white"/>
<path d="M0.800781 0.894043H38.8008V24.894H0.800781V0.894043Z" fill="url(#paint0_linear_14_473)"/>
<path d="M0.800781 1.74704V24.894H24.9718C28.1088 24.894 31.1168 23.63 33.3348 21.38C35.5586 19.1164 36.8034 16.0693 36.8008 12.896C36.8008 11.32 36.4948 9.75904 35.9008 8.30304C35.3083 6.85001 34.4368 5.52711 33.3358 4.40904C32.2411 3.29693 30.937 2.41259 29.4988 1.80704C28.0653 1.20434 26.5258 0.893942 24.9708 0.894043H0.800781V1.74704Z" fill="white"/>
<path d="M5.15778 11.034H3.80078V15.752H5.13478C5.74617 15.7859 6.34839 15.5917 6.82478 15.207C7.09414 14.9879 7.31192 14.7121 7.46263 14.3992C7.61334 14.0864 7.69329 13.7442 7.69678 13.397C7.69678 12.007 6.66478 11.034 5.15778 11.034ZM6.23678 14.578C5.88078 14.866 5.42678 15.003 4.97078 14.96H4.72578V11.835H4.97078C5.19642 11.8121 5.42437 11.8338 5.6416 11.899C5.85883 11.9642 6.06108 12.0716 6.23678 12.215C6.39819 12.365 6.52695 12.5467 6.61504 12.7487C6.70313 12.9507 6.74866 13.1686 6.74878 13.389C6.75002 13.6119 6.70518 13.8327 6.61708 14.0375C6.52897 14.2423 6.3995 14.4266 6.23678 14.579V14.578ZM9.04678 11.035H8.12478V15.753H9.04678V11.035ZM11.3028 12.845C10.7488 12.643 10.5878 12.505 10.5878 12.255C10.5878 12.003 10.8778 11.728 11.2758 11.728C11.4204 11.7308 11.5625 11.7667 11.6911 11.833C11.8197 11.8992 11.9314 11.9939 12.0178 12.11L12.5038 11.477C12.1203 11.1368 11.6244 10.9508 11.1118 10.955C10.8307 10.9381 10.551 11.0066 10.3095 11.1515C10.0681 11.2964 9.87608 11.511 9.75878 11.767C9.68178 11.937 9.63978 12.121 9.63578 12.307C9.63578 12.956 9.93378 13.291 10.8018 13.6C11.0218 13.669 11.2348 13.76 11.4368 13.87C11.5224 13.9193 11.5933 13.9905 11.6424 14.0762C11.6914 14.162 11.7167 14.2592 11.7158 14.358C11.7145 14.496 11.6706 14.6303 11.59 14.7423C11.5095 14.8544 11.3962 14.9388 11.2658 14.984C11.1795 15.0144 11.088 15.027 10.9968 15.021C10.7862 15.0246 10.5791 14.9672 10.4006 14.8555C10.2221 14.7439 10.0797 14.5829 9.99078 14.392L9.39478 14.964C9.56182 15.2468 9.80179 15.4796 10.0896 15.6379C10.3774 15.7963 10.7025 15.8743 11.0308 15.864C11.349 15.8854 11.6659 15.807 11.9375 15.6398C12.209 15.4725 12.4217 15.2248 12.5458 14.931C12.6274 14.7364 12.6676 14.527 12.6638 14.316C12.6638 13.569 12.3538 13.23 11.3028 12.845ZM12.9578 13.397C12.9546 13.7241 13.0174 14.0485 13.1425 14.3507C13.2676 14.6529 13.4524 14.9268 13.6858 15.156C13.9192 15.3859 14.1964 15.5665 14.501 15.6873C14.8056 15.808 15.1312 15.8664 15.4588 15.859C15.8588 15.854 16.2518 15.755 16.6058 15.569V14.503C16.4674 14.6636 16.2961 14.7925 16.1036 14.8812C15.9111 14.9699 15.7017 15.0162 15.4898 15.017C15.1665 15.0305 14.8473 14.9413 14.5778 14.7622C14.3083 14.5831 14.1025 14.3233 13.9898 14.02C13.9157 13.8187 13.885 13.604 13.8998 13.39C13.887 13.0732 13.9707 12.76 14.1398 12.4918C14.3089 12.2236 14.5554 12.0131 14.8468 11.888C15.0401 11.8043 15.2482 11.7601 15.4588 11.758C15.677 11.7603 15.8921 11.8091 16.0899 11.9012C16.2877 11.9932 16.4636 12.1265 16.6058 12.292V11.222C16.2547 11.028 15.8599 10.9268 15.4588 10.928C14.7994 10.9252 14.1656 11.1833 13.6958 11.646C13.4637 11.8751 13.2791 12.1476 13.1525 12.448C13.0259 12.7485 12.9597 13.071 12.9578 13.397ZM23.9318 14.206L22.6698 11.035H21.6608L23.6718 15.875H24.1688L26.2108 11.035H25.2128L23.9328 14.205L23.9318 14.206ZM26.6308 15.753H29.2468V14.956H27.5528V13.683H29.1858V12.883H27.5528V11.835H29.2468V11.035H26.6318V15.753H26.6308ZM32.9058 12.43C32.9058 11.545 32.2948 11.035 31.2278 11.035H29.8578V15.753H30.7798V13.847H30.9028L32.1798 15.753H33.3268L31.8358 13.767C32.1495 13.7193 32.4337 13.5553 32.632 13.3075C32.8302 13.0598 32.928 12.7465 32.9058 12.43ZM31.0518 13.192H30.7798V11.778H31.0668C31.6408 11.778 31.9538 12.018 31.9538 12.479C31.9538 12.94 31.6408 13.207 31.0518 13.207V13.192ZM33.6398 11.282C33.6398 11.202 33.5828 11.157 33.4828 11.157H33.3498V11.572H33.4498V11.412L33.5638 11.572H33.6858L33.5478 11.4C33.5747 11.3945 33.5987 11.3796 33.6156 11.358C33.6325 11.3364 33.641 11.3094 33.6398 11.282ZM33.4638 11.339V11.233C33.5138 11.233 33.5408 11.233 33.5408 11.286C33.5408 11.339 33.5138 11.339 33.4638 11.339Z" fill="#261F20"/>
<path d="M33.5021 10.9971C33.4453 11.016 33.3938 11.0479 33.3516 11.0904C33.3094 11.1329 33.2778 11.1846 33.2593 11.2416C33.2408 11.2985 33.236 11.359 33.2451 11.4181C33.2543 11.4773 33.2773 11.5334 33.3121 11.5821C33.3592 11.6473 33.4257 11.6959 33.5021 11.7211C33.5779 11.6955 33.6438 11.6469 33.6904 11.5819C33.7371 11.517 33.7621 11.439 33.7621 11.3591C33.7621 11.2791 33.7371 11.2012 33.6904 11.1362C33.6438 11.0713 33.5779 11.0226 33.5021 10.9971ZM33.5021 11.6561C33.4232 11.6561 33.3474 11.6248 33.2914 11.5692C33.2354 11.5136 33.2037 11.438 33.2031 11.3591C33.203 11.3198 33.2106 11.2809 33.2256 11.2446C33.2406 11.2084 33.2627 11.1754 33.2905 11.1477C33.3183 11.12 33.3513 11.0981 33.3876 11.0832C33.424 11.0683 33.4629 11.0608 33.5021 11.0611C33.581 11.0616 33.6565 11.0932 33.7123 11.1489C33.768 11.2047 33.7996 11.2802 33.8001 11.3591C33.8001 11.3982 33.7924 11.4369 33.7774 11.473C33.7624 11.5091 33.7405 11.5418 33.7128 11.5694C33.6851 11.597 33.6522 11.6189 33.6161 11.6338C33.5799 11.6486 33.5412 11.6562 33.5021 11.6561Z" fill="#261F20"/>
<path d="M21.924 13.3901C21.925 13.8857 21.7784 14.3703 21.5029 14.7823C21.2274 15.1942 20.8354 15.5148 20.377 15.7031C19.9185 15.8924 19.4142 15.942 18.9276 15.8456C18.4409 15.7491 17.9937 15.511 17.642 15.1611C17.2917 14.8116 17.053 14.3659 16.9563 13.8806C16.8597 13.3952 16.9093 12.8921 17.099 12.4351C17.2894 11.9771 17.6115 11.5861 18.0246 11.3117C18.4377 11.0374 18.9231 10.892 19.419 10.8941C20.083 10.8941 20.719 11.1581 21.189 11.6261C21.659 12.0941 21.923 12.7281 21.924 13.3901Z" fill="url(#paint1_linear_14_473)"/>
<path style="mix-blend-mode:multiply" opacity="0.65" d="M21.924 13.3901C21.925 13.8857 21.7784 14.3703 21.5029 14.7823C21.2274 15.1942 20.8354 15.5148 20.377 15.7031C19.9185 15.8924 19.4142 15.942 18.9276 15.8456C18.4409 15.7491 17.9937 15.511 17.642 15.1611C17.2917 14.8116 17.053 14.3659 16.9563 13.8806C16.8597 13.3952 16.9093 12.8921 17.099 12.4351C17.2894 11.9771 17.6115 11.5861 18.0246 11.3117C18.4377 11.0374 18.9231 10.892 19.419 10.8941C20.083 10.8941 20.719 11.1581 21.189 11.6261C21.659 12.0941 21.923 12.7281 21.924 13.3901Z" fill="url(#paint2_linear_14_473)"/>
</g>
<path d="M36.8008 1.39404H2.80078C1.97235 1.39404 1.30078 2.06562 1.30078 2.89404V22.894C1.30078 23.7225 1.97235 24.394 2.80078 24.394H36.8008C37.6292 24.394 38.3008 23.7225 38.3008 22.894V2.89404C38.3008 2.06562 37.6292 1.39404 36.8008 1.39404Z" stroke="black" stroke-opacity="0.07"/>
</g>
<defs>
<linearGradient id="paint0_linear_14_473" x1="19.8008" y1="0.894043" x2="19.8008" y2="24.894" gradientUnits="userSpaceOnUse">
<stop stop-color="#E96418"/>
<stop offset="1" stop-color="#F9A020"/>
</linearGradient>
<linearGradient id="paint1_linear_14_473" x1="20.7" y1="15.3911" x2="18.973" y2="12.6801" gradientUnits="userSpaceOnUse">
<stop stop-color="#FF9200"/>
<stop offset="0.21" stop-color="#FF8D00"/>
<stop offset="0.45" stop-color="#FF8000"/>
<stop offset="0.62" stop-color="#FF7100"/>
<stop offset="0.82" stop-color="#FF5E00"/>
<stop offset="1" stop-color="#FF5200"/>
</linearGradient>
<linearGradient id="paint2_linear_14_473" x1="20.425" y1="15.3561" x2="17.903" y2="10.4071" gradientUnits="userSpaceOnUse">
<stop stop-color="#FF7100" stop-opacity="0"/>
<stop offset="0.03" stop-color="#FF6E00" stop-opacity="0.03"/>
<stop offset="0.21" stop-color="#FF5A00" stop-opacity="0.25"/>
<stop offset="0.39" stop-color="#FF4900" stop-opacity="0.42"/>
<stop offset="0.56" stop-color="#FF3C00" stop-opacity="0.56"/>
<stop offset="0.72" stop-color="#FF3300" stop-opacity="0.66"/>
<stop offset="0.86" stop-color="#FF2D00" stop-opacity="0.72"/>
<stop offset="0.98" stop-color="#FF2B00" stop-opacity="0.74"/>
</linearGradient>
<clipPath id="clip0_14_473">
<rect width="39" height="25" fill="white" transform="translate(0 0.669922)"/>
</clipPath>
</defs>
</svg>
