<svg width="39" height="26" viewBox="0 0 39 26" fill="none" xmlns="http://www.w3.org/2000/svg">
<g clip-path="url(#clip0_14_467)">
<path d="M36.8004 1.39404H2.40039C1.57196 1.39404 0.900391 2.06562 0.900391 2.89404V22.894C0.900391 23.7225 1.57196 24.394 2.40039 24.394H36.8004C37.6288 24.394 38.3004 23.7225 38.3004 22.894V2.89404C38.3004 2.06562 37.6288 1.39404 36.8004 1.39404Z" fill="white"/>
<path d="M36.8004 1.39404H2.40039C1.57196 1.39404 0.900391 2.06562 0.900391 2.89404V22.894C0.900391 23.7225 1.57196 24.394 2.40039 24.394H36.8004C37.6288 24.394 38.3004 23.7225 38.3004 22.894V2.89404C38.3004 2.06562 37.6288 1.39404 36.8004 1.39404Z" stroke="#DDDDDD"/>
<path fill-rule="evenodd" clip-rule="evenodd" d="M31.3997 16.814V16.56H31.3337L31.2577 16.735L31.1807 16.56H31.1147V16.814H31.1617V16.622L31.2337 16.788H31.2817L31.3537 16.622V16.814H31.3997ZM30.9797 16.814V16.604H31.0647V16.56H30.8477V16.603H30.9337V16.814H30.9797ZM31.4137 13.029C31.4137 16.969 28.2277 20.164 24.2967 20.164C20.3667 20.164 17.1797 16.969 17.1797 13.029C17.1797 9.08904 20.3667 5.89404 24.2967 5.89404C28.2267 5.89404 31.4137 9.08804 31.4137 13.029Z" fill="#F79F1A"/>
<path fill-rule="evenodd" clip-rule="evenodd" d="M22.6344 13.029C22.6344 16.969 19.4484 20.164 15.5174 20.164C11.5874 20.164 8.40039 16.969 8.40039 13.029C8.40039 9.08904 11.5864 5.89404 15.5174 5.89404C19.4474 5.89404 22.6344 9.08804 22.6344 13.029Z" fill="#EA001B"/>
<path fill-rule="evenodd" clip-rule="evenodd" d="M19.9076 7.41187C19.0569 8.0797 18.3693 8.93245 17.897 9.90547C17.4246 10.8785 17.18 11.9463 17.1816 13.0279C17.1802 14.1096 17.4248 15.1774 17.8971 16.1506C18.3694 17.1238 19.0569 17.9767 19.9076 18.6449C20.7583 17.9767 21.4459 17.1238 21.9182 16.1506C22.3905 15.1774 22.6351 14.1096 22.6336 13.0279C22.6351 11.9463 22.3904 10.8786 21.9181 9.90557C21.4459 8.93257 20.7583 8.0798 19.9076 7.41187Z" fill="#FF5F01"/>
</g>
<defs>
<clipPath id="clip0_14_467">
<rect width="39" height="25" fill="white" transform="translate(0 0.669922)"/>
</clipPath>
</defs>
</svg>
