<svg width="39" height="26" viewBox="0 0 39 26" fill="none" xmlns="http://www.w3.org/2000/svg">
<g clip-path="url(#clip0_14_462)">
<path d="M36.4 1.39404H2C1.17157 1.39404 0.5 2.06562 0.5 2.89404V22.894C0.5 23.7225 1.17157 24.394 2 24.394H36.4C37.2284 24.394 37.9 23.7225 37.9 22.894V2.89404C37.9 2.06562 37.2284 1.39404 36.4 1.39404Z" fill="white"/>
<path d="M36.4 1.39404H2C1.17157 1.39404 0.5 2.06562 0.5 2.89404V22.894C0.5 23.7225 1.17157 24.394 2 24.394H36.4C37.2284 24.394 37.9 23.7225 37.9 22.894V2.89404C37.9 2.06562 37.2284 1.39404 36.4 1.39404Z" stroke="#DDDDDD"/>
<path d="M17.4241 16.7779H15.2891L16.6251 9.03389H18.7601L17.4251 16.7779H17.4241ZM25.1671 9.22289C24.5527 9.00147 23.9041 8.88977 23.2511 8.89289C21.1411 8.89289 19.6571 9.94789 19.6471 11.4559C19.6301 12.5679 20.7111 13.1859 21.5191 13.5559C22.3461 13.9359 22.6271 14.1829 22.6271 14.5209C22.6181 15.0399 21.9591 15.2789 21.3441 15.2789C20.4911 15.2789 20.0341 15.1549 19.3401 14.8669L19.0591 14.7429L18.7591 16.4819C19.2611 16.6949 20.1841 16.8849 21.1421 16.8939C23.3831 16.8939 24.8421 15.8549 24.8591 14.2489C24.8681 13.3669 24.2971 12.6919 23.0661 12.1389C22.3191 11.7859 21.8621 11.5469 21.8621 11.1839C21.8711 10.8539 22.2491 10.5169 23.0921 10.5169C23.6374 10.5013 24.1798 10.6022 24.6831 10.8129L24.8761 10.8959L25.1671 9.22289Z" fill="#1A1F71"/>
<path fill-rule="evenodd" clip-rule="evenodd" d="M28.992 9.03394H30.644L32.367 16.7779H30.389C30.389 16.7779 30.196 15.8879 30.134 15.6159H27.392L26.944 16.7779H24.703L27.875 9.67593C28.095 9.17393 28.482 9.03394 28.992 9.03394ZM28.86 11.8679L28.007 14.0349H29.782C29.695 13.6479 29.29 11.7939 29.29 11.7939L29.14 11.1269C29.049 11.3748 28.9557 11.6218 28.86 11.8679ZM6.035 9.03394H9.472C9.937 9.04994 10.315 9.18994 10.438 9.68394L11.185 13.2439L11.414 14.3139L13.506 9.03394H15.764L12.407 16.7699H10.148L8.245 10.0399C7.53775 9.65813 6.78277 9.37228 6 9.18994L6.035 9.03394Z" fill="#1A1F71"/>
</g>
<defs>
<clipPath id="clip0_14_462">
<rect width="39" height="25" fill="white" transform="translate(0 0.669922)"/>
</clipPath>
</defs>
</svg>
